<svg xmlns="http://www.w3.org/2000/svg" xmlns:xlink="http://www.w3.org/1999/xlink" id="&#x421;&#x43B;&#x43E;&#x439;_1" x="0px" y="0px" viewBox="0 0 93.09 501.52" style="enable-background:new 0 0 93.09 501.52;" xml:space="preserve"> <style type="text/css"> .st0{fill:#B3B2B2;} .st1{fill:#CCCCCB;} .st2{fill:none;stroke:#B3B2B2;stroke-miterlimit:10;} .st3{fill:#343434;} .st4{fill:#EF851E;} .st5{fill:#F1F1F1;} .st6{fill:#808181;} .st7{fill:#CC6F1A;} .st8{fill:none;stroke:#E4E4E4;stroke-width:0.25;stroke-miterlimit:10;} .st9{fill:#676767;} .st10{fill:#4E4D4D;} .st11{fill:#E4E4E4;} .st12{fill:#F8AF3D;} </style> <g> <rect x="-48.4" y="160.57" transform="matrix(6.123234e-17 -1 1 6.123234e-17 -148.3591 241.4526)" class="st0" width="189.9" height="68.67"></rect> <rect x="13.21" y="100.96" transform="matrix(-1 -1.224647e-16 1.224647e-16 -1 93.0932 389.8114)" class="st1" width="66.67" height="187.9"></rect> <g> <line class="st2" x1="80.88" y1="277.1" x2="12.21" y2="277.1"></line> <line class="st2" x1="80.88" y1="263.4" x2="12.21" y2="263.4"></line> <line class="st2" x1="80.88" y1="249.71" x2="12.21" y2="249.71"></line> <line class="st2" x1="80.88" y1="236.01" x2="12.21" y2="236.01"></line> <line class="st2" x1="80.88" y1="222.31" x2="12.21" y2="222.31"></line> <line class="st2" x1="80.88" y1="208.61" x2="12.21" y2="208.61"></line> <line class="st2" x1="80.88" y1="194.91" x2="12.21" y2="194.91"></line> <line class="st2" x1="80.88" y1="181.21" x2="12.21" y2="181.21"></line> <line class="st2" x1="80.88" y1="167.51" x2="12.21" y2="167.51"></line> <line class="st2" x1="80.88" y1="153.81" x2="12.21" y2="153.81"></line> <line class="st2" x1="80.88" y1="140.11" x2="12.21" y2="140.11"></line> <line class="st2" x1="80.88" y1="126.41" x2="12.21" y2="126.41"></line> <line class="st2" x1="80.88" y1="112.71" x2="12.21" y2="112.71"></line> </g> <path class="st3" d="M82.88,373.59v7.05c0,9.74-7.9,17.64-17.64,17.64H27.85c-9.74,0-17.64-7.9-17.64-17.64v-7.05 c0-1.22,0.99-2.21,2.21-2.21h68.25C81.89,371.38,82.88,372.37,82.88,373.59z"></path> <path class="st4" d="M80.88,293.1v88.78c0,7.96-6.45,14.42-14.42,14.42H26.63c-7.96,0-14.42-6.45-14.42-14.42V293.1H80.88z"></path> <path class="st5" d="M33.74,390.58l-1.23,6.38h28l-1.23-6.38c-0.44-2.3-2.46-3.96-4.79-3.96H38.53 C36.19,386.62,34.18,388.28,33.74,390.58z"></path> <path class="st5" d="M46.55,396.96h13.96l-1.23-6.38c-0.44-2.3-2.46-3.96-4.79-3.96h-7.93V396.96z"></path> <path class="st6" d="M47.55,395.96h11.75l-1-5.19c-0.35-1.82-1.96-3.15-3.81-3.15h-6.93V395.96z"></path> <path class="st5" d="M46.55,386.62h-8.01c-2.34,0-4.35,1.66-4.79,3.96l-1.23,6.38h14.04V386.62z"></path> <path class="st6" d="M45.55,395.96v-8.33h-7.01c-1.86,0-3.46,1.32-3.81,3.15l-1,5.19H45.55z"></path> <path class="st7" d="M18.76,293.1v49.35c0,5.11,4.14,9.24,9.24,9.24h36.89c5.11,0,9.24-4.14,9.24-9.24V293.1H18.76z"></path> <line class="st8" x1="46.55" y1="386.62" x2="46.55" y2="364.72"></line> <line class="st8" x1="55.21" y1="387.16" x2="59.77" y2="364.46"></line> <line class="st8" x1="37.78" y1="387.16" x2="33.22" y2="364.46"></line> <path class="st3" d="M23.6,354.35l-0.8,9.1c-0.06,0.68,0.42,1.27,1.03,1.27h45.43c0.61,0,1.09-0.59,1.03-1.27l-0.8-9.1 c-0.08-0.92-0.78-1.63-1.61-1.63H25.21C24.38,352.72,23.68,353.43,23.6,354.35z"></path> <g> <path class="st9" d="M77.19,356.18v1.22c0,0.38,0.31,0.69,0.69,0.69h2.88c0.38,0,0.69-0.31,0.69-0.69v-1.22 c0-0.38-0.31-0.69-0.69-0.69h-2.88C77.5,355.49,77.19,355.8,77.19,356.18z"></path> <rect x="81.42" y="355.46" transform="matrix(6.123234e-17 -1 1 6.123234e-17 -275.8999 439.4973)" class="st9" width="0.77" height="4.47"></rect> <path class="st10" d="M82.76,356.7v1.38c0,0.57,0.46,1.03,1.03,1.03h8.28c0.57,0,1.03-0.46,1.03-1.03v-1.38 c0-0.57-0.46-1.03-1.03-1.03h-8.28C83.22,355.68,82.76,356.14,82.76,356.7z"></path> </g> <g> <path class="st9" d="M72.67,386.79v0.69c0,0.22,0.17,0.39,0.39,0.39h1.63c0.22,0,0.39-0.17,0.39-0.39v-0.69 c0-0.22-0.17-0.39-0.39-0.39h-1.63C72.84,386.4,72.67,386.58,72.67,386.79z"></path> <rect x="75.07" y="386.39" transform="matrix(6.123234e-17 -1 1 6.123234e-17 -312.3694 462.945)" class="st9" width="0.44" height="2.54"></rect> <path class="st10" d="M75.83,387.09v0.79c0,0.32,0.26,0.58,0.58,0.58h4.71c0.32,0,0.58-0.26,0.58-0.58v-0.79 c0-0.32-0.26-0.58-0.58-0.58h-4.71C76.09,386.51,75.83,386.77,75.83,387.09z"></path> </g> <g> <path class="st9" d="M15.91,356.18v1.22c0,0.38-0.31,0.69-0.69,0.69h-2.88c-0.38,0-0.69-0.31-0.69-0.69v-1.22 c0-0.38,0.31-0.69,0.69-0.69h2.88C15.6,355.49,15.91,355.8,15.91,356.18z"></path> <rect x="10.91" y="355.46" transform="matrix(6.123234e-17 -1 1 6.123234e-17 -346.4038 368.9934)" class="st9" width="0.77" height="4.47"></rect> <path class="st10" d="M10.34,356.7v1.38c0,0.57-0.46,1.03-1.03,1.03H1.03c-0.57,0-1.03-0.46-1.03-1.03v-1.38 c0-0.57,0.46-1.03,1.03-1.03h8.28C9.88,355.68,10.34,356.14,10.34,356.7z"></path> </g> <g> <path class="st9" d="M20.43,386.79v0.69c0,0.22-0.18,0.39-0.39,0.39H18.4c-0.22,0-0.39-0.17-0.39-0.39v-0.69 c0-0.22,0.17-0.39,0.39-0.39h1.63C20.25,386.4,20.43,386.58,20.43,386.79z"></path> <rect x="17.59" y="386.39" transform="matrix(6.123234e-17 -1 1 6.123234e-17 -369.8515 405.4629)" class="st9" width="0.44" height="2.54"></rect> <path class="st10" d="M17.26,387.09v0.79c0,0.32-0.26,0.58-0.58,0.58h-4.71c-0.32,0-0.58-0.26-0.58-0.58v-0.79 c0-0.32,0.26-0.58,0.58-0.58h4.71C17,386.51,17.26,386.77,17.26,387.09z"></path> </g> <g> <path class="st11" d="M21.68,391.5v2.4h9.09v-0.19c0-1.22-2.25-2.2-5.02-2.2H21.68z"></path> <path class="st12" d="M20.74,393.89h0.94v-2.4H19.4c-0.07,0.28-0.11,0.56-0.13,0.82c0,0.01,0,0.01,0,0.02 C19.22,393.19,19.9,393.89,20.74,393.89z"></path> </g> <g> <path class="st11" d="M71.72,391.5v2.4h-9.09v-0.19c0-1.22,2.25-2.2,5.02-2.2H71.72z"></path> <path class="st12" d="M72.65,393.89h-0.94v-2.4H74c0.07,0.28,0.11,0.56,0.13,0.82c0,0.01,0,0.01,0,0.02 C74.18,393.19,73.5,393.89,72.65,393.89z"></path> </g> </g> </svg>